<svg width="296" height="129" viewBox="0 0 296 129" fill="none" xmlns="http://www.w3.org/2000/svg">
<path fill-rule="evenodd" clip-rule="evenodd" d="M26.5882 73.6469C26.5882 77.887 29.5989 80.2611 35.6202 80.77C36.0445 80.77 36.723 80.77 37.6559 80.77V97.687C26.0367 97.687 17.8102 95.9275 12.976 92.4084C8.14186 88.8895 5.7246 83.1019 5.7246 75.0461V42.9925H0V26.0755H5.7246L10.0502 7.63179H26.5882V26.0755H36.2565V42.9925H26.5882V73.6469ZM71.3679 24.8033C71.9614 24.8033 72.6399 24.8458 73.4032 24.9306C74.1666 25.0153 74.8451 25.1426 75.4387 25.3121C76.0322 25.4817 76.5835 25.6515 77.0925 25.821C77.6014 25.9905 78.0042 26.1391 78.3011 26.2662C78.5977 26.3932 78.7463 26.4569 78.7463 26.4569V48.9707C76.0322 47.7835 73.6577 47.19 71.6223 47.19C68.5691 47.19 66.1308 48.0592 64.3072 49.7977C62.4838 51.5359 61.5721 54.8643 61.5721 59.7824V96.4152H41.3448V26.0755H59.5367L61.0634 32.6895C61.0634 32.52 61.148 32.2444 61.3177 31.8628C61.4875 31.4811 61.8477 30.8452 62.3992 29.9549C62.9502 29.0645 63.5653 28.2588 64.2438 27.538C64.9222 26.8174 65.8977 26.1813 67.1697 25.6302C68.4417 25.079 69.8411 24.8033 71.3679 24.8033ZM111.949 26.0755H131.541V96.4152H111.313L110.677 91.8362C110.592 91.9211 110.465 92.1118 110.295 92.4084C110.126 92.7053 109.702 93.1929 109.023 93.8712C108.345 94.5496 107.603 95.1433 106.797 95.6519C105.991 96.1608 104.847 96.6272 103.362 97.0511C101.878 97.4751 100.331 97.687 98.7191 97.687C95.9203 97.687 93.4184 97.1998 91.2132 96.2244C89.0082 95.2492 87.2695 94.062 85.9975 92.6628C84.7252 91.2636 83.6864 89.6313 82.8805 87.7659C82.075 85.9003 81.5237 84.183 81.227 82.6143C80.9301 81.0456 80.7817 79.5403 80.7817 78.099V44.519C80.7817 37.9046 82.4354 32.9652 85.743 29.7004C89.0507 26.4357 93.3759 24.8033 98.7191 24.8033C100.5 24.8033 102.175 24.9943 103.744 25.3759C105.313 25.7573 106.543 26.2449 107.433 26.8384C108.324 27.4322 109.087 28.0256 109.723 28.6194C110.359 29.2128 110.804 29.6792 111.059 30.0185L111.313 30.6545L111.949 26.0755ZM110.677 75.555V48.0803C110.677 46.8085 110.232 45.7484 109.341 44.9005C108.451 44.0526 107.391 43.6286 106.161 43.6286C104.931 43.6286 103.871 44.0526 102.981 44.9005C102.09 45.7484 101.645 46.8085 101.645 48.0803V75.555C101.645 76.8268 102.09 77.887 102.981 78.7349C103.871 79.5828 104.931 80.0067 106.161 80.0067C107.391 80.0067 108.451 79.5828 109.341 78.7349C110.232 77.887 110.677 76.8268 110.677 75.555ZM177.084 60.8001L193.113 96.4152H168.433L158.383 68.8135V96.4152H137.52V0H158.383V52.5324L167.161 26.0755H191.841L177.084 60.8001ZM216.393 24.8033C219.022 24.8033 221.376 24.9519 223.454 25.2485C225.532 25.5454 227.737 26.1813 230.069 27.1565C232.401 28.1318 234.33 29.446 235.857 31.0996C237.384 32.7532 238.677 35.0427 239.737 37.9682C240.797 40.8937 241.327 44.307 241.327 48.2077V73.5199C241.327 82.0843 239.207 88.2533 234.967 92.0269C230.726 95.8005 224.535 97.687 216.393 97.687C208.251 97.687 202.082 95.8217 197.883 92.0906C193.685 88.3594 191.586 82.1692 191.586 73.5199V48.2077C191.586 32.6047 199.855 24.8033 216.393 24.8033ZM220.973 74.9189V47.4444C220.973 46.2572 220.528 45.2186 219.637 44.3279C218.747 43.4376 217.687 42.9925 216.457 42.9925C215.227 42.9925 214.167 43.4376 213.276 44.3279C212.386 45.2186 211.941 46.2572 211.941 47.4444V74.9189C211.941 76.191 212.386 77.272 213.276 78.1624C214.167 79.0527 215.227 79.4981 216.457 79.4981C217.687 79.4981 218.747 79.0527 219.637 78.1624C220.528 77.272 220.973 76.191 220.973 74.9189ZM266.007 45.282C266.007 47.2325 266.728 48.8648 268.17 50.1791C269.612 51.4934 271.414 52.5112 273.576 53.232C275.739 53.9527 278.071 54.8007 280.573 55.7759C283.075 56.7508 285.407 57.7898 287.57 58.8921C289.733 59.9944 291.535 61.6905 292.977 63.9801C294.419 66.2696 295.139 69.0255 295.139 72.2478V80.3885C295.139 81.4908 294.97 82.6992 294.631 84.0135C294.291 85.3279 293.57 86.8332 292.468 88.529C291.365 90.225 289.945 91.73 288.206 93.0445C286.468 94.3588 284.008 95.4612 280.828 96.3515C277.647 97.2419 274.022 97.687 269.951 97.687C265.88 97.687 262.297 97.2843 259.201 96.4789C256.106 95.6731 253.688 94.677 251.95 93.4898C250.211 92.3025 248.812 90.8397 247.752 89.1014C246.692 87.363 245.992 85.7518 245.653 84.268C245.314 82.7839 245.144 81.194 245.144 79.4981V70.2127H265.371V79.4981C265.371 80.2611 265.689 81.0244 266.325 81.7876C266.961 82.5507 268 82.9324 269.442 82.9324C270.969 82.9324 272.156 82.5719 273.004 81.8511C273.852 81.1302 274.276 80.346 274.276 79.4981V75.555C274.276 74.2829 273.852 73.1382 273.004 72.1207C272.156 71.103 271.053 70.2763 269.696 69.6402C268.339 69.0042 266.792 68.3471 265.053 67.6687C263.314 66.9903 261.533 66.3332 259.71 65.6973C257.887 65.0611 256.106 64.1919 254.367 63.0896C252.628 61.9874 251.08 60.7577 249.723 59.401C248.367 58.0442 247.264 56.2423 246.416 53.9949C245.568 51.7479 245.144 49.1827 245.144 46.2997V40.9574C245.144 36.2934 247.2 32.4352 251.314 29.3823C255.427 26.3298 261.3 24.8033 268.933 24.8033C273.598 24.8033 277.562 25.3121 280.828 26.3298C284.093 27.3473 286.489 28.7252 288.015 30.4637C289.542 32.2019 290.602 33.898 291.196 35.5516C291.789 37.205 292.086 39.0072 292.086 40.9574V48.5892H271.986V41.9751C271.986 41.6357 271.901 41.2967 271.732 40.9574C271.562 40.6183 271.244 40.3003 270.778 40.0034C270.311 39.7067 269.824 39.5582 269.315 39.5582C268.382 39.5582 267.597 39.8125 266.961 40.3214C266.325 40.8302 266.007 41.3813 266.007 41.9751V45.282Z" fill="#0078DC"/>
<path fill-rule="evenodd" clip-rule="evenodd" d="M94.7635 118.317C94.7635 119.123 94.6133 119.841 94.3178 120.474C94.0174 121.106 93.6079 121.638 93.0757 122.079C92.5481 122.52 91.9294 122.852 91.2106 123.071C90.4963 123.293 89.7276 123.407 88.8998 123.407C88.3219 123.407 87.7851 123.357 87.294 123.257C86.8026 123.162 86.3613 123.044 85.9747 122.898C85.5881 122.757 85.2649 122.611 85.0012 122.461C84.7374 122.307 84.5554 122.179 84.4554 122.075C84.3506 121.965 84.2778 121.829 84.2278 121.665C84.1779 121.502 84.155 121.283 84.155 121.006C84.155 120.81 84.1644 120.651 84.1824 120.519C84.2006 120.392 84.2278 120.287 84.2596 120.21C84.2962 120.128 84.3416 120.073 84.3963 120.041C84.4461 120.01 84.5098 119.996 84.5827 119.996C84.7056 119.996 84.8828 120.069 85.1057 120.219C85.3332 120.374 85.6244 120.537 85.9792 120.715C86.3385 120.892 86.7662 121.06 87.2667 121.215C87.7671 121.369 88.3492 121.447 89.0043 121.447C89.5048 121.447 89.9596 121.379 90.3737 121.247C90.7877 121.115 91.1424 120.924 91.438 120.683C91.7384 120.437 91.9657 120.137 92.125 119.782C92.2842 119.427 92.3662 119.023 92.3662 118.568C92.3662 118.081 92.2523 117.663 92.0295 117.317C91.8111 116.971 91.5155 116.666 91.1515 116.403C90.7877 116.139 90.3737 115.903 89.9051 115.684C89.4411 115.466 88.9634 115.243 88.4721 115.015C87.9854 114.792 87.5078 114.538 87.0483 114.265C86.5842 113.988 86.1703 113.665 85.8065 113.292C85.4425 112.919 85.1469 112.482 84.9192 111.977C84.6964 111.477 84.5827 110.876 84.5827 110.172C84.5827 109.453 84.7146 108.811 84.9739 108.247C85.2376 107.683 85.6016 107.21 86.0657 106.828C86.5343 106.446 87.0891 106.155 87.7352 105.955C88.3765 105.755 89.0725 105.655 89.8186 105.655C90.2007 105.655 90.5873 105.691 90.9742 105.755C91.3608 105.823 91.7248 105.909 92.0658 106.023C92.407 106.132 92.7119 106.26 92.9756 106.396C93.2442 106.533 93.4214 106.646 93.5034 106.728C93.5899 106.815 93.6443 106.878 93.6716 106.928C93.6989 106.978 93.7218 107.042 93.7353 107.115C93.7536 107.192 93.7672 107.283 93.7764 107.388C93.7858 107.497 93.79 107.633 93.79 107.802C93.79 107.961 93.7853 108.102 93.7719 108.229C93.7581 108.352 93.7353 108.457 93.7128 108.543C93.6854 108.625 93.6443 108.688 93.5989 108.73C93.5488 108.766 93.4944 108.789 93.4306 108.789C93.3352 108.789 93.1804 108.725 92.9711 108.602C92.7617 108.475 92.5071 108.338 92.207 108.179C91.9021 108.024 91.5473 107.884 91.1334 107.756C90.7195 107.624 90.2554 107.561 89.7415 107.561C89.259 107.561 88.8406 107.624 88.4859 107.756C88.1308 107.884 87.8398 108.056 87.6078 108.27C87.3757 108.479 87.2029 108.734 87.0891 109.03C86.9711 109.321 86.9119 109.63 86.9119 109.962C86.9119 110.44 87.0254 110.854 87.2483 111.199C87.4712 111.545 87.7626 111.854 88.1353 112.118C88.5039 112.386 88.9223 112.632 89.3909 112.85C89.864 113.073 90.3419 113.296 90.833 113.524C91.3199 113.751 91.802 114.001 92.2706 114.27C92.7438 114.542 93.1622 114.861 93.5307 115.229C93.8992 115.598 94.1993 116.034 94.4222 116.535C94.6497 117.04 94.7635 117.631 94.7635 118.317ZM108.024 116.303C108.024 116.648 107.937 116.898 107.765 117.044C107.592 117.19 107.396 117.262 107.173 117.262H99.3079C99.3079 117.931 99.3761 118.527 99.508 119.063C99.6401 119.596 99.863 120.05 100.177 120.433C100.486 120.815 100.891 121.11 101.387 121.315C101.887 121.52 102.492 121.62 103.216 121.62C103.784 121.62 104.289 121.574 104.735 121.479C105.176 121.388 105.563 121.283 105.886 121.165C106.209 121.051 106.477 120.947 106.686 120.856C106.896 120.76 107.05 120.715 107.16 120.715C107.219 120.715 107.278 120.728 107.324 120.76C107.373 120.792 107.41 120.837 107.437 120.901C107.464 120.965 107.487 121.051 107.501 121.16C107.51 121.269 107.519 121.406 107.519 121.565C107.519 121.683 107.514 121.784 107.505 121.865C107.496 121.952 107.487 122.025 107.473 122.093C107.46 122.161 107.437 122.22 107.405 122.275C107.373 122.325 107.333 122.379 107.287 122.425C107.237 122.475 107.091 122.557 106.85 122.666C106.614 122.775 106.3 122.884 105.918 122.993C105.536 123.098 105.094 123.193 104.594 123.28C104.089 123.362 103.557 123.407 102.988 123.407C102.001 123.407 101.137 123.266 100.395 122.993C99.6536 122.716 99.0304 122.307 98.5209 121.765C98.016 121.224 97.6339 120.546 97.3747 119.728C97.1196 118.909 96.9878 117.958 96.9878 116.876C96.9878 115.848 97.1245 114.92 97.3882 114.097C97.6567 113.278 98.0388 112.577 98.5437 112.004C99.0442 111.431 99.6491 110.995 100.363 110.685C101.073 110.38 101.869 110.226 102.747 110.226C103.689 110.226 104.489 110.376 105.154 110.681C105.813 110.981 106.359 111.39 106.787 111.9C107.214 112.409 107.524 113.01 107.724 113.696C107.924 114.388 108.024 115.12 108.024 115.902V116.303ZM105.813 115.652C105.841 114.497 105.586 113.587 105.044 112.932C104.508 112.273 103.711 111.945 102.656 111.945C102.11 111.945 101.637 112.05 101.228 112.255C100.818 112.455 100.477 112.728 100.204 113.064C99.9267 113.401 99.7128 113.796 99.5626 114.247C99.4125 114.692 99.3262 115.161 99.3079 115.652H105.813ZM121.389 111.372C121.389 111.686 121.348 111.909 121.266 112.045C121.18 112.182 121.071 112.255 120.939 112.255H119.219C119.529 112.573 119.747 112.923 119.87 113.31C119.997 113.696 120.056 114.101 120.056 114.52C120.056 115.211 119.947 115.825 119.724 116.357C119.501 116.889 119.187 117.34 118.773 117.708C118.359 118.077 117.868 118.359 117.299 118.554C116.731 118.75 116.098 118.85 115.407 118.85C114.92 118.85 114.452 118.786 114.015 118.654C113.574 118.527 113.233 118.363 112.996 118.168C112.837 118.327 112.705 118.508 112.6 118.713C112.5 118.918 112.45 119.155 112.45 119.423C112.45 119.732 112.591 119.992 112.882 120.196C113.169 120.401 113.555 120.51 114.033 120.528L117.168 120.66C117.764 120.678 118.309 120.76 118.805 120.906C119.301 121.056 119.733 121.26 120.097 121.533C120.461 121.806 120.748 122.138 120.952 122.534C121.157 122.93 121.257 123.389 121.257 123.912C121.257 124.463 121.143 124.985 120.911 125.486C120.679 125.982 120.325 126.418 119.851 126.796C119.374 127.173 118.769 127.474 118.032 127.692C117.295 127.906 116.426 128.015 115.421 128.015C114.452 128.015 113.628 127.933 112.946 127.769C112.268 127.605 111.709 127.382 111.276 127.096C110.84 126.814 110.526 126.473 110.33 126.077C110.135 125.681 110.034 125.254 110.034 124.79C110.034 124.499 110.071 124.212 110.144 123.939C110.212 123.662 110.321 123.403 110.467 123.153C110.617 122.902 110.799 122.666 111.017 122.438C111.231 122.211 111.486 121.988 111.768 121.765C111.331 121.542 111.013 121.265 110.803 120.928C110.594 120.592 110.49 120.223 110.49 119.837C110.49 119.291 110.599 118.809 110.821 118.381C111.044 117.954 111.322 117.572 111.65 117.235C111.372 116.908 111.154 116.535 110.994 116.125C110.835 115.711 110.753 115.211 110.753 114.624C110.753 113.942 110.872 113.328 111.103 112.787C111.331 112.245 111.654 111.786 112.064 111.413C112.468 111.04 112.959 110.754 113.533 110.553C114.106 110.353 114.734 110.253 115.407 110.253C115.771 110.253 116.112 110.271 116.426 110.312C116.74 110.353 117.036 110.408 117.313 110.481H120.939C121.089 110.481 121.202 110.553 121.275 110.699C121.353 110.845 121.389 111.072 121.389 111.372ZM117.955 114.529C117.955 113.715 117.727 113.078 117.281 112.618C116.831 112.159 116.194 111.932 115.366 111.932C114.938 111.932 114.57 112.004 114.256 112.145C113.938 112.286 113.678 112.482 113.469 112.732C113.26 112.982 113.105 113.269 113.001 113.592C112.9 113.915 112.846 114.256 112.846 114.611C112.846 115.402 113.073 116.025 113.519 116.476C113.969 116.93 114.597 117.158 115.407 117.158C115.844 117.158 116.221 117.089 116.54 116.949C116.858 116.812 117.122 116.621 117.331 116.376C117.541 116.134 117.695 115.852 117.8 115.529C117.9 115.211 117.955 114.879 117.955 114.529ZM119.06 124.03C119.06 123.517 118.846 123.121 118.428 122.839C118.005 122.561 117.431 122.411 116.713 122.393L113.606 122.288C113.324 122.507 113.092 122.72 112.91 122.921C112.728 123.121 112.582 123.312 112.473 123.494C112.368 123.676 112.295 123.853 112.255 124.03C112.214 124.208 112.195 124.39 112.195 124.576C112.195 125.154 112.486 125.595 113.073 125.891C113.66 126.186 114.479 126.336 115.525 126.336C116.194 126.336 116.749 126.273 117.199 126.145C117.65 126.014 118.009 125.845 118.287 125.632C118.56 125.418 118.76 125.172 118.878 124.899C118.996 124.622 119.06 124.335 119.06 124.03ZM134.49 122.82C134.49 122.889 134.477 122.953 134.445 122.998C134.413 123.048 134.358 123.089 134.276 123.125C134.199 123.162 134.095 123.189 133.963 123.207C133.835 123.225 133.676 123.235 133.489 123.235C133.285 123.235 133.121 123.225 132.989 123.207C132.862 123.189 132.762 123.162 132.684 123.125C132.607 123.089 132.557 123.048 132.53 122.998C132.507 122.953 132.493 122.889 132.493 122.82V121.233C131.806 121.988 131.133 122.538 130.464 122.884C129.8 123.235 129.123 123.407 128.44 123.407C127.64 123.407 126.966 123.271 126.42 123.007C125.874 122.739 125.433 122.379 125.097 121.92C124.755 121.46 124.514 120.928 124.369 120.319C124.223 119.714 124.15 118.972 124.15 118.104V110.826C124.15 110.754 124.164 110.694 124.196 110.645C124.228 110.599 124.287 110.553 124.373 110.512C124.464 110.472 124.578 110.449 124.724 110.435C124.864 110.422 125.042 110.412 125.256 110.412C125.47 110.412 125.647 110.422 125.788 110.435C125.929 110.449 126.043 110.472 126.129 110.512C126.211 110.553 126.27 110.599 126.307 110.645C126.343 110.694 126.361 110.754 126.361 110.826V117.808C126.361 118.508 126.411 119.073 126.516 119.496C126.616 119.919 126.771 120.278 126.98 120.574C127.189 120.874 127.453 121.101 127.771 121.265C128.094 121.433 128.467 121.515 128.895 121.515C129.446 121.515 129.991 121.32 130.537 120.928C131.083 120.537 131.665 119.964 132.28 119.209V110.826C132.28 110.754 132.293 110.694 132.325 110.645C132.357 110.599 132.416 110.553 132.507 110.512C132.593 110.472 132.707 110.449 132.844 110.435C132.98 110.422 133.162 110.412 133.385 110.412C133.599 110.412 133.776 110.422 133.917 110.435C134.058 110.449 134.172 110.472 134.249 110.512C134.331 110.553 134.39 110.599 134.431 110.645C134.472 110.694 134.49 110.754 134.49 110.826V122.82ZM140.754 122.82C140.754 122.889 140.736 122.953 140.7 122.998C140.663 123.048 140.604 123.089 140.527 123.125C140.445 123.162 140.336 123.189 140.195 123.207C140.049 123.225 139.867 123.235 139.644 123.235C139.435 123.235 139.258 123.225 139.112 123.207C138.971 123.189 138.857 123.162 138.776 123.125C138.689 123.089 138.63 123.048 138.598 122.998C138.571 122.953 138.553 122.889 138.553 122.82V110.826C138.553 110.763 138.571 110.708 138.598 110.654C138.63 110.599 138.689 110.553 138.776 110.522C138.857 110.485 138.971 110.458 139.112 110.44C139.258 110.422 139.435 110.412 139.644 110.412C139.867 110.412 140.049 110.422 140.195 110.44C140.336 110.458 140.445 110.485 140.527 110.522C140.604 110.553 140.663 110.599 140.7 110.654C140.736 110.708 140.754 110.763 140.754 110.826V122.82ZM141.005 106.774C141.005 107.292 140.909 107.642 140.713 107.829C140.518 108.015 140.158 108.106 139.635 108.106C139.117 108.106 138.767 108.015 138.575 107.833C138.384 107.652 138.289 107.311 138.289 106.801C138.289 106.287 138.384 105.937 138.58 105.75C138.776 105.564 139.135 105.468 139.658 105.468C140.177 105.468 140.527 105.559 140.718 105.741C140.909 105.923 141.005 106.269 141.005 106.774ZM162.608 122.82C162.608 122.889 162.59 122.953 162.558 122.998C162.522 123.048 162.463 123.089 162.385 123.125C162.303 123.162 162.194 123.189 162.049 123.207C161.908 123.225 161.73 123.235 161.516 123.235C161.293 123.235 161.111 123.225 160.971 123.207C160.829 123.189 160.716 123.162 160.629 123.125C160.547 123.089 160.488 123.048 160.452 122.998C160.415 122.953 160.397 122.889 160.397 122.82V115.529C160.397 115.025 160.352 114.561 160.265 114.147C160.175 113.728 160.033 113.369 159.838 113.064C159.642 112.764 159.392 112.532 159.092 112.373C158.792 112.213 158.432 112.132 158.027 112.132C157.518 112.132 157.008 112.327 156.499 112.719C155.989 113.11 155.425 113.683 154.815 114.438V122.82C154.815 122.889 154.797 122.953 154.761 122.998C154.724 123.048 154.666 123.089 154.579 123.125C154.497 123.162 154.384 123.189 154.242 123.207C154.097 123.225 153.919 123.235 153.706 123.235C153.501 123.235 153.328 123.225 153.182 123.207C153.032 123.189 152.919 123.162 152.832 123.125C152.75 123.089 152.691 123.048 152.659 122.998C152.632 122.953 152.614 122.889 152.614 122.82V115.529C152.614 115.025 152.564 114.561 152.468 114.147C152.368 113.728 152.223 113.369 152.027 113.064C151.831 112.764 151.586 112.532 151.29 112.373C150.99 112.213 150.64 112.132 150.23 112.132C149.721 112.132 149.211 112.327 148.697 112.719C148.183 113.11 147.619 113.683 147.018 114.438V122.82C147.018 122.889 147 122.953 146.964 122.998C146.928 123.048 146.868 123.089 146.791 123.125C146.709 123.162 146.6 123.189 146.459 123.207C146.313 123.225 146.131 123.235 145.908 123.235C145.699 123.235 145.522 123.225 145.376 123.207C145.235 123.189 145.121 123.162 145.04 123.125C144.953 123.089 144.894 123.048 144.862 122.998C144.835 122.953 144.817 122.889 144.817 122.82V110.826C144.817 110.754 144.83 110.694 144.858 110.645C144.885 110.599 144.94 110.553 145.017 110.512C145.099 110.472 145.199 110.449 145.326 110.435C145.449 110.422 145.613 110.412 145.818 110.412C146.013 110.412 146.177 110.422 146.304 110.435C146.432 110.449 146.532 110.472 146.605 110.512C146.673 110.553 146.727 110.599 146.759 110.645C146.786 110.694 146.805 110.754 146.805 110.826V112.414C147.478 111.659 148.133 111.104 148.77 110.754C149.407 110.403 150.048 110.226 150.694 110.226C151.194 110.226 151.64 110.285 152.036 110.399C152.432 110.517 152.778 110.676 153.082 110.885C153.383 111.095 153.642 111.345 153.856 111.631C154.065 111.922 154.247 112.245 154.388 112.6C154.788 112.164 155.166 111.795 155.525 111.495C155.885 111.19 156.235 110.945 156.567 110.758C156.899 110.572 157.222 110.44 157.54 110.353C157.854 110.267 158.173 110.226 158.491 110.226C159.265 110.226 159.915 110.362 160.438 110.635C160.961 110.904 161.384 111.267 161.712 111.718C162.035 112.173 162.267 112.705 162.403 113.31C162.54 113.919 162.608 114.561 162.608 115.238V122.82ZM168.822 122.82C168.822 122.889 168.804 122.953 168.768 122.998C168.731 123.048 168.672 123.089 168.595 123.125C168.513 123.162 168.404 123.189 168.263 123.207C168.117 123.225 167.935 123.235 167.712 123.235C167.503 123.235 167.326 123.225 167.18 123.207C167.039 123.189 166.925 123.162 166.844 123.125C166.757 123.089 166.698 123.048 166.666 122.998C166.639 122.953 166.621 122.889 166.621 122.82V110.826C166.621 110.763 166.639 110.708 166.666 110.654C166.698 110.599 166.757 110.553 166.844 110.522C166.925 110.485 167.039 110.458 167.18 110.44C167.326 110.422 167.503 110.412 167.712 110.412C167.935 110.412 168.117 110.422 168.263 110.44C168.404 110.458 168.513 110.485 168.595 110.522C168.672 110.553 168.731 110.599 168.768 110.654C168.804 110.708 168.822 110.763 168.822 110.826V122.82ZM169.073 106.774C169.073 107.292 168.977 107.642 168.781 107.829C168.586 108.015 168.226 108.106 167.703 108.106C167.185 108.106 166.834 108.015 166.643 107.833C166.452 107.652 166.357 107.311 166.357 106.801C166.357 106.287 166.452 105.937 166.648 105.75C166.844 105.564 167.203 105.468 167.726 105.468C168.244 105.468 168.595 105.559 168.786 105.741C168.977 105.923 169.073 106.269 169.073 106.774ZM183.12 116.303C183.12 116.648 183.034 116.898 182.861 117.044C182.688 117.19 182.492 117.262 182.269 117.262H174.404C174.404 117.931 174.472 118.527 174.604 119.063C174.736 119.596 174.959 120.05 175.273 120.433C175.582 120.815 175.987 121.11 176.483 121.315C176.983 121.52 177.588 121.62 178.312 121.62C178.88 121.62 179.385 121.574 179.831 121.479C180.272 121.388 180.659 121.283 180.982 121.165C181.305 121.051 181.573 120.947 181.783 120.856C181.992 120.76 182.147 120.715 182.256 120.715C182.315 120.715 182.374 120.728 182.42 120.76C182.469 120.792 182.506 120.837 182.533 120.901C182.56 120.965 182.583 121.051 182.597 121.16C182.606 121.269 182.615 121.406 182.615 121.565C182.615 121.683 182.61 121.784 182.601 121.865C182.592 121.952 182.583 122.025 182.569 122.093C182.556 122.161 182.533 122.22 182.501 122.275C182.47 122.325 182.429 122.379 182.383 122.425C182.333 122.475 182.187 122.557 181.947 122.666C181.71 122.775 181.396 122.884 181.014 122.993C180.632 123.098 180.19 123.193 179.69 123.28C179.185 123.362 178.653 123.407 178.084 123.407C177.097 123.407 176.233 123.266 175.491 122.993C174.75 122.716 174.126 122.307 173.617 121.765C173.112 121.224 172.73 120.546 172.471 119.728C172.216 118.909 172.084 117.958 172.084 116.876C172.084 115.848 172.221 114.92 172.484 114.097C172.753 113.278 173.135 112.577 173.64 112.004C174.14 111.431 174.745 110.995 175.459 110.685C176.169 110.38 176.965 110.226 177.843 110.226C178.785 110.226 179.586 110.376 180.25 110.681C180.909 110.981 181.455 111.39 181.883 111.9C182.31 112.409 182.62 113.01 182.82 113.696C183.02 114.388 183.12 115.12 183.12 115.902V116.303ZM180.909 115.652C180.937 114.497 180.682 113.587 180.14 112.932C179.604 112.273 178.808 111.945 177.752 111.945C177.206 111.945 176.733 112.05 176.324 112.255C175.914 112.455 175.573 112.728 175.3 113.064C175.023 113.401 174.809 113.796 174.659 114.247C174.509 114.692 174.422 115.161 174.404 115.652H180.909ZM196.795 122.82C196.795 122.889 196.776 122.953 196.74 122.998C196.703 123.048 196.649 123.089 196.567 123.125C196.485 123.162 196.376 123.189 196.235 123.207C196.089 123.225 195.912 123.235 195.703 123.235C195.48 123.235 195.298 123.225 195.152 123.207C195.011 123.189 194.902 123.162 194.82 123.125C194.743 123.089 194.684 123.048 194.647 122.998C194.611 122.953 194.593 122.889 194.593 122.82V115.798C194.593 115.111 194.543 114.561 194.434 114.147C194.329 113.728 194.174 113.369 193.969 113.064C193.765 112.764 193.501 112.532 193.173 112.373C192.85 112.213 192.477 112.132 192.05 112.132C191.499 112.132 190.949 112.327 190.399 112.719C189.843 113.11 189.266 113.683 188.665 114.438V122.82C188.665 122.889 188.647 122.953 188.611 122.998C188.574 123.048 188.515 123.089 188.438 123.125C188.356 123.162 188.247 123.189 188.106 123.207C187.96 123.225 187.778 123.235 187.555 123.235C187.346 123.235 187.169 123.225 187.023 123.207C186.882 123.189 186.768 123.162 186.687 123.125C186.6 123.089 186.541 123.048 186.509 122.998C186.482 122.953 186.464 122.889 186.464 122.82V110.826C186.464 110.754 186.477 110.694 186.504 110.645C186.532 110.599 186.586 110.553 186.664 110.512C186.746 110.472 186.846 110.449 186.973 110.435C187.096 110.422 187.26 110.412 187.464 110.412C187.66 110.412 187.824 110.422 187.951 110.435C188.078 110.449 188.178 110.472 188.251 110.512C188.32 110.553 188.374 110.599 188.406 110.645C188.433 110.694 188.452 110.754 188.452 110.826V112.414C189.125 111.659 189.798 111.104 190.471 110.754C191.14 110.403 191.818 110.226 192.5 110.226C193.301 110.226 193.974 110.362 194.52 110.635C195.066 110.904 195.512 111.267 195.848 111.718C196.185 112.173 196.426 112.705 196.572 113.31C196.722 113.919 196.795 114.652 196.795 115.502V122.82ZM206.789 121.938C206.789 122.198 206.771 122.402 206.739 122.552C206.702 122.702 206.648 122.816 206.575 122.884C206.507 122.957 206.398 123.025 206.257 123.084C206.116 123.148 205.952 123.198 205.77 123.239C205.588 123.28 205.397 123.312 205.192 123.339C204.988 123.366 204.783 123.38 204.578 123.38C203.955 123.38 203.423 123.298 202.977 123.134C202.536 122.966 202.172 122.72 201.885 122.388C201.603 122.052 201.394 121.634 201.266 121.119C201.139 120.61 201.075 120.01 201.075 119.314V112.304H199.392C199.26 112.304 199.155 112.236 199.074 112.091C198.992 111.95 198.955 111.718 198.955 111.4C198.955 111.231 198.965 111.09 198.987 110.972C199.01 110.858 199.037 110.763 199.074 110.685C199.11 110.613 199.155 110.558 199.215 110.526C199.274 110.494 199.338 110.481 199.406 110.481H201.075V107.629C201.075 107.565 201.089 107.511 201.121 107.456C201.153 107.402 201.207 107.356 201.294 107.315C201.376 107.274 201.489 107.247 201.635 107.229C201.776 107.21 201.953 107.201 202.167 107.201C202.39 107.201 202.572 107.211 202.713 107.229C202.854 107.247 202.968 107.274 203.045 107.315C203.127 107.356 203.181 107.402 203.218 107.456C203.254 107.511 203.272 107.565 203.272 107.629V110.481H206.352C206.42 110.481 206.484 110.494 206.539 110.526C206.589 110.558 206.639 110.613 206.675 110.685C206.716 110.763 206.748 110.858 206.762 110.972C206.78 111.09 206.789 111.231 206.789 111.4C206.789 111.718 206.753 111.95 206.671 112.091C206.589 112.236 206.484 112.304 206.352 112.304H203.272V118.995C203.272 119.823 203.395 120.446 203.637 120.869C203.882 121.288 204.319 121.502 204.951 121.502C205.156 121.502 205.338 121.479 205.497 121.442C205.656 121.401 205.802 121.356 205.925 121.315C206.047 121.269 206.157 121.229 206.243 121.188C206.334 121.147 206.411 121.129 206.484 121.129C206.53 121.129 206.571 121.138 206.611 121.16C206.653 121.183 206.68 121.224 206.702 121.288C206.725 121.351 206.748 121.433 206.762 121.542C206.78 121.647 206.789 121.779 206.789 121.938ZM220.582 116.689C220.582 117.667 220.454 118.568 220.195 119.386C219.94 120.21 219.554 120.919 219.044 121.515C218.535 122.111 217.893 122.575 217.124 122.907C216.356 123.239 215.464 123.407 214.454 123.407C213.467 123.407 212.607 123.257 211.875 122.966C211.142 122.675 210.528 122.247 210.041 121.688C209.555 121.129 209.191 120.446 208.95 119.646C208.709 118.85 208.59 117.94 208.59 116.93C208.59 115.952 208.718 115.052 208.968 114.233C209.223 113.41 209.605 112.7 210.114 112.104C210.624 111.509 211.265 111.049 212.029 110.722C212.794 110.39 213.685 110.226 214.704 110.226C215.692 110.226 216.551 110.372 217.284 110.667C218.016 110.958 218.63 111.386 219.117 111.945C219.608 112.505 219.972 113.187 220.218 113.983C220.463 114.783 220.582 115.684 220.582 116.689ZM218.266 116.835C218.266 116.189 218.203 115.575 218.084 114.997C217.966 114.42 217.766 113.915 217.493 113.478C217.215 113.042 216.842 112.7 216.374 112.446C215.901 112.191 215.314 112.064 214.613 112.064C213.963 112.064 213.408 112.182 212.939 112.414C212.475 112.641 212.089 112.968 211.789 113.392C211.484 113.815 211.261 114.315 211.115 114.893C210.97 115.47 210.897 116.098 210.897 116.785C210.897 117.44 210.956 118.058 211.074 118.636C211.193 119.214 211.393 119.719 211.675 120.146C211.952 120.578 212.33 120.919 212.798 121.174C213.271 121.429 213.858 121.552 214.559 121.552C215.2 121.552 215.755 121.438 216.224 121.206C216.697 120.974 217.084 120.651 217.384 120.232C217.689 119.819 217.911 119.318 218.053 118.741C218.193 118.163 218.266 117.531 218.266 116.835Z" fill="#0078DC"/>
<path fill-rule="evenodd" clip-rule="evenodd" d="M240.265 122.82C240.265 122.889 240.252 122.952 240.22 123.007C240.188 123.057 240.134 123.102 240.061 123.134C239.983 123.162 239.883 123.189 239.761 123.207C239.633 123.225 239.483 123.235 239.306 123.235C239.119 123.235 238.965 123.225 238.842 123.207C238.714 123.189 238.614 123.162 238.532 123.134C238.455 123.102 238.396 123.057 238.36 123.007C238.323 122.952 238.305 122.889 238.305 122.82V121.233C237.677 121.92 237.022 122.452 236.34 122.834C235.662 123.216 234.916 123.407 234.111 123.407C233.228 123.407 232.478 123.235 231.854 122.893C231.235 122.552 230.731 122.088 230.344 121.506C229.957 120.924 229.675 120.242 229.498 119.455C229.32 118.668 229.23 117.84 229.23 116.971C229.23 115.939 229.343 115.006 229.562 114.179C229.784 113.346 230.117 112.637 230.549 112.054C230.985 111.468 231.527 111.017 232.168 110.699C232.814 110.385 233.556 110.226 234.402 110.226C235.102 110.226 235.744 110.38 236.326 110.685C236.908 110.995 237.486 111.445 238.055 112.041V105.068C238.055 105.009 238.068 104.95 238.1 104.891C238.132 104.832 238.191 104.786 238.282 104.759C238.369 104.727 238.482 104.7 238.619 104.677C238.755 104.654 238.933 104.645 239.147 104.645C239.369 104.645 239.551 104.654 239.692 104.677C239.833 104.7 239.947 104.727 240.025 104.759C240.106 104.786 240.165 104.832 240.206 104.891C240.247 104.95 240.265 105.009 240.265 105.068V122.82ZM238.055 114.383C237.459 113.646 236.881 113.087 236.326 112.7C235.771 112.314 235.193 112.118 234.588 112.118C234.029 112.118 233.551 112.255 233.164 112.518C232.773 112.787 232.455 113.137 232.209 113.574C231.963 114.006 231.786 114.501 231.677 115.052C231.563 115.602 231.509 116.162 231.509 116.73C231.509 117.335 231.554 117.926 231.65 118.504C231.74 119.077 231.904 119.591 232.136 120.041C232.368 120.492 232.673 120.851 233.055 121.119C233.437 121.392 233.92 121.529 234.493 121.529C234.788 121.529 235.07 121.488 235.343 121.406C235.612 121.329 235.889 121.192 236.176 121.006C236.458 120.819 236.758 120.578 237.068 120.283C237.377 119.982 237.709 119.618 238.055 119.182V114.383ZM246.53 122.82C246.53 122.889 246.511 122.952 246.475 122.998C246.439 123.048 246.379 123.089 246.302 123.125C246.22 123.162 246.111 123.189 245.97 123.207C245.824 123.225 245.642 123.235 245.419 123.235C245.21 123.235 245.033 123.225 244.887 123.207C244.746 123.189 244.632 123.162 244.551 123.125C244.464 123.089 244.405 123.048 244.373 122.998C244.346 122.952 244.328 122.889 244.328 122.82V110.826C244.328 110.763 244.346 110.708 244.373 110.653C244.405 110.599 244.464 110.553 244.551 110.522C244.632 110.485 244.746 110.458 244.887 110.44C245.033 110.422 245.21 110.412 245.419 110.412C245.642 110.412 245.824 110.422 245.97 110.44C246.111 110.458 246.22 110.485 246.302 110.522C246.379 110.553 246.439 110.599 246.475 110.653C246.511 110.708 246.53 110.763 246.53 110.826V122.82ZM246.78 106.774C246.78 107.292 246.684 107.642 246.488 107.829C246.293 108.015 245.934 108.106 245.41 108.106C244.892 108.106 244.542 108.015 244.35 107.833C244.159 107.652 244.064 107.311 244.064 106.801C244.064 106.287 244.159 105.937 244.355 105.75C244.551 105.564 244.91 105.468 245.433 105.468C245.952 105.468 246.302 105.559 246.493 105.741C246.684 105.923 246.78 106.269 246.78 106.774ZM259.631 122.834C259.631 122.939 259.595 123.021 259.522 123.071C259.453 123.125 259.353 123.166 259.23 123.193C259.103 123.221 258.921 123.235 258.685 123.235C258.453 123.235 258.266 123.221 258.13 123.193C257.993 123.166 257.893 123.125 257.83 123.071C257.766 123.021 257.738 122.939 257.738 122.834V121.633C257.211 122.193 256.628 122.629 255.983 122.939C255.341 123.248 254.659 123.407 253.94 123.407C253.308 123.407 252.735 123.325 252.225 123.157C251.715 122.993 251.279 122.757 250.919 122.448C250.56 122.134 250.278 121.751 250.078 121.301C249.882 120.847 249.782 120.332 249.782 119.755C249.782 119.077 249.919 118.495 250.191 117.995C250.469 117.499 250.865 117.085 251.379 116.758C251.893 116.425 252.525 116.18 253.271 116.016C254.017 115.852 254.859 115.77 255.791 115.77H257.443V114.838C257.443 114.374 257.393 113.965 257.297 113.61C257.197 113.255 257.043 112.959 256.824 112.728C256.606 112.491 256.324 112.314 255.978 112.191C255.632 112.073 255.204 112.013 254.7 112.013C254.154 112.013 253.672 112.077 253.239 112.204C252.807 112.336 252.43 112.477 252.107 112.632C251.779 112.787 251.511 112.928 251.292 113.059C251.074 113.187 250.915 113.25 250.806 113.25C250.733 113.25 250.674 113.232 250.619 113.201C250.565 113.164 250.519 113.11 250.478 113.037C250.442 112.968 250.41 112.878 250.392 112.764C250.374 112.655 250.365 112.532 250.365 112.4C250.365 112.177 250.383 112 250.414 111.873C250.446 111.745 250.519 111.622 250.637 111.504C250.76 111.39 250.965 111.254 251.261 111.099C251.552 110.945 251.888 110.804 252.27 110.672C252.653 110.544 253.071 110.44 253.526 110.353C253.976 110.267 254.436 110.226 254.9 110.226C255.76 110.226 256.492 110.326 257.097 110.522C257.702 110.717 258.189 111.004 258.562 111.381C258.935 111.759 259.208 112.227 259.376 112.787C259.544 113.346 259.631 113.996 259.631 114.743V122.834ZM257.443 117.358H255.564C254.959 117.358 254.436 117.408 253.99 117.508C253.549 117.613 253.18 117.763 252.885 117.963C252.593 118.163 252.375 118.404 252.239 118.681C252.102 118.964 252.034 119.282 252.034 119.646C252.034 120.269 252.23 120.765 252.625 121.133C253.021 121.502 253.576 121.688 254.286 121.688C254.863 121.688 255.396 121.542 255.891 121.247C256.383 120.956 256.901 120.505 257.443 119.901V117.358ZM270.676 111.613C270.676 111.809 270.671 111.973 270.662 112.104C270.653 112.241 270.635 112.346 270.612 112.418C270.585 112.495 270.548 112.55 270.512 112.591C270.471 112.632 270.417 112.65 270.344 112.65C270.271 112.65 270.185 112.632 270.085 112.591C269.98 112.55 269.866 112.514 269.739 112.473C269.607 112.432 269.466 112.395 269.307 112.359C269.143 112.323 268.97 112.304 268.783 112.304C268.561 112.304 268.347 112.35 268.133 112.441C267.919 112.527 267.692 112.673 267.46 112.878C267.223 113.082 266.978 113.355 266.718 113.692C266.464 114.028 266.177 114.442 265.868 114.929V122.82C265.868 122.889 265.849 122.952 265.813 122.998C265.777 123.048 265.717 123.089 265.64 123.125C265.558 123.162 265.449 123.189 265.308 123.207C265.162 123.225 264.98 123.235 264.757 123.235C264.548 123.235 264.371 123.225 264.225 123.207C264.084 123.189 263.971 123.162 263.889 123.125C263.802 123.089 263.743 123.048 263.711 122.998C263.684 122.952 263.666 122.889 263.666 122.82V110.826C263.666 110.754 263.679 110.694 263.707 110.645C263.734 110.599 263.789 110.553 263.866 110.512C263.948 110.472 264.048 110.449 264.175 110.435C264.298 110.422 264.462 110.412 264.667 110.412C264.862 110.412 265.026 110.422 265.153 110.435C265.281 110.449 265.381 110.472 265.454 110.512C265.522 110.553 265.576 110.599 265.608 110.645C265.635 110.694 265.654 110.754 265.654 110.826V112.573C265.981 112.091 266.291 111.7 266.577 111.4C266.868 111.099 267.141 110.858 267.4 110.685C267.655 110.512 267.91 110.394 268.165 110.326C268.42 110.262 268.674 110.226 268.929 110.226C269.047 110.226 269.179 110.235 269.325 110.249C269.47 110.262 269.625 110.285 269.784 110.321C269.943 110.358 270.089 110.394 270.217 110.44C270.348 110.485 270.439 110.531 270.489 110.571C270.544 110.617 270.58 110.658 270.599 110.699C270.617 110.74 270.63 110.79 270.644 110.854C270.658 110.917 270.667 111.008 270.671 111.127C270.676 111.245 270.676 111.409 270.676 111.613ZM275.384 122.82C275.384 122.889 275.366 122.952 275.33 122.998C275.293 123.048 275.234 123.089 275.157 123.125C275.075 123.162 274.966 123.189 274.825 123.207C274.679 123.225 274.497 123.235 274.274 123.235C274.065 123.235 273.887 123.225 273.742 123.207C273.601 123.189 273.487 123.162 273.405 123.125C273.319 123.089 273.26 123.048 273.228 122.998C273.201 122.952 273.182 122.889 273.182 122.82V110.826C273.182 110.763 273.201 110.708 273.228 110.653C273.26 110.599 273.319 110.553 273.405 110.522C273.487 110.485 273.601 110.458 273.742 110.44C273.887 110.422 274.065 110.412 274.274 110.412C274.497 110.412 274.679 110.422 274.825 110.44C274.966 110.458 275.075 110.485 275.157 110.522C275.234 110.553 275.293 110.599 275.33 110.653C275.366 110.708 275.384 110.763 275.384 110.826V122.82ZM275.634 106.774C275.634 107.292 275.539 107.642 275.343 107.829C275.148 108.015 274.788 108.106 274.265 108.106C273.747 108.106 273.396 108.015 273.205 107.833C273.014 107.652 272.918 107.311 272.918 106.801C272.918 106.287 273.014 105.937 273.21 105.75C273.405 105.564 273.765 105.468 274.288 105.468C274.806 105.468 275.157 105.559 275.348 105.741C275.539 105.923 275.634 106.269 275.634 106.774ZM290.601 116.689C290.601 117.667 290.473 118.568 290.214 119.386C289.96 120.21 289.573 120.919 289.063 121.515C288.554 122.111 287.912 122.575 287.144 122.907C286.375 123.239 285.483 123.407 284.473 123.407C283.486 123.407 282.626 123.257 281.894 122.966C281.161 122.675 280.547 122.247 280.061 121.688C279.574 121.129 279.21 120.446 278.969 119.646C278.728 118.85 278.609 117.94 278.609 116.93C278.609 115.952 278.737 115.052 278.987 114.233C279.242 113.41 279.624 112.7 280.134 112.104C280.643 111.509 281.284 111.049 282.049 110.722C282.813 110.39 283.704 110.226 284.723 110.226C285.711 110.226 286.57 110.372 287.303 110.667C288.035 110.958 288.649 111.386 289.136 111.945C289.627 112.505 289.991 113.187 290.237 113.983C290.482 114.783 290.601 115.684 290.601 116.689ZM288.285 116.835C288.285 116.189 288.222 115.575 288.103 114.997C287.985 114.42 287.785 113.915 287.512 113.478C287.235 113.041 286.861 112.7 286.393 112.446C285.92 112.191 285.333 112.064 284.632 112.064C283.982 112.064 283.427 112.182 282.958 112.414C282.495 112.641 282.108 112.968 281.808 113.392C281.503 113.815 281.28 114.315 281.134 114.893C280.989 115.47 280.916 116.098 280.916 116.785C280.916 117.44 280.975 118.058 281.093 118.636C281.212 119.214 281.412 119.718 281.694 120.146C281.971 120.578 282.349 120.919 282.817 121.174C283.291 121.429 283.877 121.551 284.578 121.551C285.219 121.551 285.774 121.438 286.243 121.206C286.716 120.974 287.103 120.651 287.403 120.232C287.708 119.819 287.93 119.318 288.072 118.741C288.212 118.163 288.285 117.531 288.285 116.835Z" fill="#0078DC"/>
</svg>